<svg xmlns="http://www.w3.org/2000/svg" width="298" height="298" viewBox="0 0 298 298" fill="none">
  <path fill-rule="evenodd" clip-rule="evenodd" d="M142.144 0.145016C125.561 1.51879 117.808 2.85341 106.266 6.32107C97.6201 8.9187 91.0994 11.5163 82.7019 15.7081C67.2159 23.4381 54.7681 32.5972 41.7991 45.8039C34.0522 53.693 29.1269 59.8587 23.4068 68.8281C13.1858 84.8555 5.74231 103.328 2.31352 121.175C1.26394 126.637 0 137.449 0 140.962C0 141.286 7.12878 141.344 39.1402 141.281L78.2806 141.204L79.0788 137.255C81.0731 127.387 83.9035 119.89 88.5308 112.22C99.7363 93.644 119.064 81.2591 141.072 78.5523C144.718 78.1037 153.723 78.1699 157.508 78.6727C178.398 81.4488 196.623 92.7937 207.941 110.067C213.183 118.068 216.192 125.561 218.431 136.197L219.421 140.9L255.883 140.992C290.247 141.078 296.767 141 297.588 140.493C298.26 140.079 296.331 125.91 294.422 117.23C286.711 82.1771 266.926 51.4656 238.224 29.999C222.502 18.2401 203.858 9.35053 184.734 4.49362C177.499 2.65647 168.128 1.25417 156.434 0.259117C153.066 -0.0276539 145.004 -0.0919878 142.144 0.145016ZM142.904 94.6591C126.627 96.5257 111.917 105.842 102.474 120.265C99.667 124.552 96.8311 131.094 95.5021 136.348C94.5386 140.157 94.1792 152.014 94.8578 157.614C96.223 168.883 103.216 181.63 112.505 189.781C116.522 193.307 119.518 195.315 124.485 197.81C133.434 202.306 138.056 203.35 149.137 203.38C157.61 203.403 159.219 203.186 165.1 201.226C173.073 198.568 178.655 195.408 184.416 190.289C190.87 184.555 194.587 179.88 197.627 173.674C202.456 163.814 203.28 159.921 203.025 148.184C202.847 140.041 202.256 135.703 200.685 131.022C198.507 124.535 193.828 117.066 188.36 111.349C176.779 99.2423 159.205 92.7898 142.904 94.6591ZM155.058 126.177C161.482 128.02 167.217 132.791 170.203 138.776C173.194 144.774 173.491 151.634 171.022 157.7C168.416 164.101 162.701 169.563 156.295 171.774C154.514 172.388 153.732 172.46 148.833 172.458C142.431 172.456 141.053 172.121 136.874 169.555C129.314 164.911 125.277 157.729 125.271 148.915C125.268 144.935 125.985 141.888 127.762 138.321C128.818 136.199 129.588 135.2 132.098 132.689C136.161 128.626 139.304 126.777 143.968 125.701C146.575 125.101 152.136 125.339 155.058 126.177ZM0.00152025 157.818C0.00699317 159.158 0.984821 168.93 1.38374 171.629C5.11687 196.894 17.949 225.302 34.1522 244.17C37.8297 248.453 45.7286 256.488 50.6664 260.969C63.7272 272.821 80.4601 282.838 97.4927 289C116.219 295.775 134.294 298.595 154.52 297.897C186.816 296.782 219.172 284.496 243.499 264.11C260.243 250.078 273.753 232.941 282.907 214.123C291.189 197.097 295.7 180.512 297.811 159.336L298 157.439H258.631C221.398 157.439 219.253 157.468 219.106 157.97C219.02 158.262 218.724 159.798 218.448 161.384C216.758 171.068 213.353 179.638 208.014 187.642C198.964 201.21 187.154 210.706 173.005 215.792C164.389 218.889 161.524 219.375 150.738 219.57C140.812 219.749 137.37 219.462 131.768 217.987C116.252 213.902 102.467 204.811 92.9462 192.387C87.5046 185.287 83.2221 176.795 80.869 168.439C80.1688 165.952 78.4451 158.2 78.4451 157.537C78.4451 157.483 60.795 157.439 39.2226 157.439C8.0464 157.439 0.000304051 157.517 0.00152025 157.818Z" fill="black" fill-opacity="0.08"/>
</svg>